STARTFONT 2.1
FONT -Adobe-Utopia-Bold-I-Normal--17-120-100-100-P-93-ISO8859-2
SIZE 12 100 100
FONTBOUNDINGBOX 24 19 -2 -4
STARTPROPERTIES 29
FOUNDRY "Adobe"
FAMILY_NAME "Utopia"
WEIGHT_NAME "Bold"
SLANT "I"
SETWIDTH_NAME "Normal"
ADD_STYLE_NAME ""
PIXEL_SIZE 17
POINT_SIZE 120
RESOLUTION_X 100
RESOLUTION_Y 100
SPACING "P"
AVERAGE_WIDTH 93
CHARSET_REGISTRY "ISO8859"
CHARSET_ENCODING "2"
CAP_HEIGHT 12
X_HEIGHT 8
RELATIVE_SETWIDTH 50
RELATIVE_WEIGHT 70
WEIGHT 208
FACE_NAME "Utopia Bold Italic"
COPYRIGHT "Copyright (c) 1989, 1991 Adobe Systems Incorporated.  All Rights Reserved., Copyright 1996 Cub Soft"
NOTICE "Utopia is a registered trademark of Adobe Systems Incorporated."
DESTINATION 0
FONT_ASCENT 15
FONT_DESCENT 4
DEFAULT_CHAR 32
_ADOBE_PSFONT "Utopia-BoldItalic"
_ADOBE_XFONT "-Adobe-Utopia-Bold-I-Normal--17-120-100-100-P-93-ISO8859-2"
_DEC_DEVICE_FONTNAMES "PS=Utopia-BoldItalic"
ENDPROPERTIES
CHARS 191
STARTCHAR space
ENCODING 32
SWIDTH 210 0
DWIDTH 3 0
BBX 0 0 0 0
BITMAP
ENDCHAR
STARTCHAR exclam
ENCODING 33
SWIDTH 285 0
DWIDTH 5 0
BBX 5 12 1 0
BITMAP
38
38
30
30
30
20
20
20
00
e0
e0
c0
ENDCHAR
STARTCHAR quotedbl
ENCODING 34
SWIDTH 455 0
DWIDTH 8 0
BBX 6 5 3 7
BITMAP
ec
cc
c8
98
90
ENDCHAR
STARTCHAR numbersign
ENCODING 35
SWIDTH 560 0
DWIDTH 9 0
BBX 9 11 1 0
BITMAP
0900
0900
1200
7f80
1200
2400
ff00
2c00
4800
4800
5800
ENDCHAR
STARTCHAR dollar
ENCODING 36
SWIDTH 560 0
DWIDTH 9 0
BBX 9 14 1 -2
BITMAP
0200
0e00
1580
3580
3c00
3e00
1f00
0f00
4b00
cb00
f200
3c00
1000
1000
ENDCHAR
STARTCHAR percent
ENCODING 37
SWIDTH 896 0
DWIDTH 15 0
BBX 13 12 2 0
BITMAP
0010
3fe0
6620
c640
c480
c900
7a70
00d8
0598
0998
11b0
20e0
ENDCHAR
STARTCHAR ampersand
ENCODING 38
SWIDTH 752 0
DWIDTH 13 0
BBX 11 11 2 0
BITMAP
0e00
1300
3200
34e0
38c0
3cc0
5e80
cf00
c700
e380
7cc0
ENDCHAR
STARTCHAR apostrophe
ENCODING 39
SWIDTH 246 0
DWIDTH 4 0
BBX 3 5 2 7
BITMAP
60
60
60
40
80
ENDCHAR
STARTCHAR parenleft
ENCODING 40
SWIDTH 350 0
DWIDTH 6 0
BBX 6 14 2 -2
BITMAP
0c
18
30
30
60
60
40
c0
c0
c0
c0
c0
40
60
ENDCHAR
STARTCHAR parenright
ENCODING 41
SWIDTH 350 0
DWIDTH 6 0
BBX 6 14 0 -2
BITMAP
10
08
08
0c
0c
0c
0c
08
18
18
10
30
60
c0
ENDCHAR
STARTCHAR asterisk
ENCODING 42
SWIDTH 500 0
DWIDTH 8 0
BBX 7 7 2 5
BITMAP
18
5a
7e
30
dc
94
30
ENDCHAR
STARTCHAR plus
ENCODING 43
SWIDTH 600 0
DWIDTH 10 0
BBX 8 8 2 0
BITMAP
18
18
18
ff
18
18
18
18
ENDCHAR
STARTCHAR comma
ENCODING 44
SWIDTH 280 0
DWIDTH 5 0
BBX 3 6 1 -3
BITMAP
60
60
60
40
40
80
ENDCHAR
STARTCHAR minus
ENCODING 45
SWIDTH 600 0
DWIDTH 10 0
BBX 8 1 2 4
BITMAP
ff
ENDCHAR
STARTCHAR period
ENCODING 46
SWIDTH 280 0
DWIDTH 5 0
BBX 3 3 1 0
BITMAP
60
e0
c0
ENDCHAR
STARTCHAR slash
ENCODING 47
SWIDTH 260 0
DWIDTH 4 0
BBX 6 12 1 0
BITMAP
0c
08
08
18
10
30
30
20
60
40
40
c0
ENDCHAR
STARTCHAR zero
ENCODING 48
SWIDTH 560 0
DWIDTH 9 0
BBX 8 11 2 0
BITMAP
1e
32
63
63
e3
c7
c7
c6
c6
4c
38
ENDCHAR
STARTCHAR one
ENCODING 49
SWIDTH 560 0
DWIDTH 9 0
BBX 7 11 2 0
BITMAP
06
3e
0c
0c
1c
1c
18
18
38
38
fc
ENDCHAR
STARTCHAR two
ENCODING 50
SWIDTH 560 0
DWIDTH 9 0
BBX 9 11 1 0
BITMAP
0f00
1980
3180
1180
0380
0700
0c00
1800
6100
7f00
ff00
ENDCHAR
STARTCHAR three
ENCODING 51
SWIDTH 560 0
DWIDTH 9 0
BBX 9 11 1 0
BITMAP
0f00
3980
1180
0380
1c00
0300
0300
4300
e300
6600
3c00
ENDCHAR
STARTCHAR four
ENCODING 52
SWIDTH 560 0
DWIDTH 9 0
BBX 9 11 1 0
BITMAP
0180
0380
0700
0b00
1300
2700
4600
ff80
0600
0e00
1f00
ENDCHAR
STARTCHAR five
ENCODING 53
SWIDTH 560 0
DWIDTH 9 0
BBX 9 11 1 0
BITMAP
1f80
1f00
3000
2000
3e00
2300
0300
0300
c300
e600
3c00
ENDCHAR
STARTCHAR six
ENCODING 54
SWIDTH 560 0
DWIDTH 9 0
BBX 8 11 2 0
BITMAP
1e
33
63
60
fe
e3
c3
c3
c3
46
3c
ENDCHAR
STARTCHAR seven
ENCODING 55
SWIDTH 560 0
DWIDTH 9 0
BBX 9 11 2 0
BITMAP
7f80
7f80
8300
0200
0400
0800
1800
3000
7000
6000
6000
ENDCHAR
STARTCHAR eight
ENCODING 56
SWIDTH 560 0
DWIDTH 9 0
BBX 9 11 1 0
BITMAP
0f00
1980
3180
3180
3300
3e00
6300
c300
c300
c600
3c00
ENDCHAR
STARTCHAR nine
ENCODING 57
SWIDTH 560 0
DWIDTH 9 0
BBX 9 11 1 0
BITMAP
1e00
3100
6180
6180
6180
6380
3f80
0300
4700
c600
3c00
ENDCHAR
STARTCHAR colon
ENCODING 58
SWIDTH 280 0
DWIDTH 5 0
BBX 4 8 1 0
BITMAP
30
70
20
00
00
60
e0
c0
ENDCHAR
STARTCHAR semicolon
ENCODING 59
SWIDTH 280 0
DWIDTH 5 0
BBX 4 11 1 -3
BITMAP
70
70
60
00
00
60
60
60
40
40
80
ENDCHAR
STARTCHAR less
ENCODING 60
SWIDTH 600 0
DWIDTH 10 0
BBX 8 9 2 -1
BITMAP
01
07
1e
78
c0
f0
1c
07
01
ENDCHAR
STARTCHAR equal
ENCODING 61
SWIDTH 600 0
DWIDTH 10 0
BBX 8 4 2 2
BITMAP
ff
00
00
ff
ENDCHAR
STARTCHAR greater
ENCODING 62
SWIDTH 600 0
DWIDTH 10 0
BBX 8 9 2 -1
BITMAP
80
e0
78
1e
03
0f
38
e0
80
ENDCHAR
STARTCHAR question
ENCODING 63
SWIDTH 454 0
DWIDTH 8 0
BBX 7 12 2 0
BITMAP
3c
66
66
0e
1c
70
60
78
00
60
e0
e0
ENDCHAR
STARTCHAR at
ENCODING 64
SWIDTH 828 0
DWIDTH 14 0
BBX 12 12 2 0
BITMAP
0780
1860
3010
63d0
4cd0
cd90
d990
dba0
ddc0
4000
3040
0f80
ENDCHAR
STARTCHAR A
ENCODING 65
SWIDTH 634 0
DWIDTH 11 0
BBX 12 12 -1 0
BITMAP
01c0
01c0
03c0
03c0
05c0
04c0
08c0
0fc0
10c0
30e0
20e0
f1f0
ENDCHAR
STARTCHAR B
ENCODING 66
SWIDTH 680 0
DWIDTH 11 0
BBX 11 12 1 0
BITMAP
3fc0
0c60
1c60
1c60
18c0
1f80
1980
38c0
38c0
30c0
3180
ff00
ENDCHAR
STARTCHAR C
ENCODING 67
SWIDTH 672 0
DWIDTH 11 0
BBX 11 12 2 0
BITMAP
0780
18e0
3040
7040
6000
e000
e000
e000
e080
6080
7100
1e00
ENDCHAR
STARTCHAR D
ENCODING 68
SWIDTH 774 0
DWIDTH 13 0
BBX 13 12 0 0
BITMAP
1fc0
0c30
0c18
0c18
1818
1818
1818
1838
3830
3870
38e0
ff80
ENDCHAR
STARTCHAR E
ENCODING 69
SWIDTH 622 0
DWIDTH 10 0
BBX 11 12 1 0
BITMAP
3fe0
1c60
1c20
1800
1880
3f80
3900
3100
3040
7080
7180
ff80
ENDCHAR
STARTCHAR F
ENCODING 70
SWIDTH 585 0
DWIDTH 10 0
BBX 11 12 1 0
BITMAP
3fe0
0c60
0c20
0c00
1840
1880
1f80
1880
1800
3800
3000
fc00
ENDCHAR
STARTCHAR G
ENCODING 71
SWIDTH 726 0
DWIDTH 12 0
BBX 11 12 2 0
BITMAP
07c0
1860
3020
7020
e000
e000
e3e0
e1c0
e1c0
61c0
7180
1f00
ENDCHAR
STARTCHAR H
ENCODING 72
SWIDTH 800 0
DWIDTH 13 0
BBX 15 12 0 0
BITMAP
3f7e
0c18
0c38
1c38
1c38
1ff0
1830
3870
3870
3860
3060
fdf0
ENDCHAR
STARTCHAR I
ENCODING 73
SWIDTH 386 0
DWIDTH 6 0
BBX 8 12 1 0
BITMAP
3f
0c
0c
1c
1c
18
18
38
38
30
30
fc
ENDCHAR
STARTCHAR J
ENCODING 74
SWIDTH 388 0
DWIDTH 6 0
BBX 9 14 0 -2
BITMAP
0f80
0600
0600
0e00
0e00
0c00
0c00
1c00
1c00
1c00
1800
3800
7000
e000
ENDCHAR
STARTCHAR K
ENCODING 75
SWIDTH 688 0
DWIDTH 11 0
BBX 13 12 1 0
BITMAP
3e78
1c60
1cc0
1980
1a00
3e00
3f00
3700
3780
7380
61c0
f8e0
ENDCHAR
STARTCHAR L
ENCODING 76
SWIDTH 586 0
DWIDTH 10 0
BBX 10 12 1 0
BITMAP
3f00
0c00
1c00
1c00
1c00
1800
3800
3800
3840
7040
7080
ff80
ENDCHAR
STARTCHAR M
ENCODING 77
SWIDTH 921 0
DWIDTH 15 0
BBX 16 12 1 0
BITMAP
3c0f
1c1e
1c1c
2e2c
2e4c
265c
265c
2698
2718
4738
4638
f27c
ENDCHAR
STARTCHAR N
ENCODING 78
SWIDTH 741 0
DWIDTH 12 0
BBX 14 12 1 0
BITMAP
3c3c
0e18
1610
1710
1710
1320
13a0
21a0
21e0
21e0
60c0
f0c0
ENDCHAR
STARTCHAR O
ENCODING 79
SWIDTH 761 0
DWIDTH 13 0
BBX 11 12 2 0
BITMAP
0f80
38c0
7060
6060
e060
c060
c060
c0e0
c0c0
c1c0
6380
3e00
ENDCHAR
STARTCHAR P
ENCODING 80
SWIDTH 660 0
DWIDTH 11 0
BBX 11 12 1 0
BITMAP
1f80
0c60
0c60
1c60
1c60
18c0
1f80
3800
3800
3800
3000
fc00
ENDCHAR
STARTCHAR Q
ENCODING 81
SWIDTH 761 0
DWIDTH 13 0
BBX 11 15 2 -3
BITMAP
0f80
38c0
7060
6060
e060
c060
c0e0
c0e0
c0c0
41c0
6380
3e00
0e00
0f80
03c0
ENDCHAR
STARTCHAR R
ENCODING 82
SWIDTH 681 0
DWIDTH 11 0
BBX 11 12 1 0
BITMAP
1fc0
0c60
0c60
0c60
1860
18c0
1f00
1980
1980
3980
3980
f8c0
ENDCHAR
STARTCHAR S
ENCODING 83
SWIDTH 551 0
DWIDTH 9 0
BBX 9 12 2 0
BITMAP
1e00
2380
6100
6100
7000
3c00
1c00
0e00
8600
8600
c400
7800
ENDCHAR
STARTCHAR T
ENCODING 84
SWIDTH 616 0
DWIDTH 10 0
BBX 11 12 2 0
BITMAP
7fe0
4e40
8e40
0c00
1c00
1c00
1c00
1800
1800
3800
3800
fc00
ENDCHAR
STARTCHAR U
ENCODING 85
SWIDTH 776 0
DWIDTH 13 0
BBX 12 12 3 0
BITMAP
f9f0
70c0
60c0
61c0
61c0
6180
c180
c380
c380
c300
c600
3c00
ENDCHAR
STARTCHAR V
ENCODING 86
SWIDTH 630 0
DWIDTH 10 0
BBX 12 12 2 0
BITMAP
f8f0
7040
70c0
7080
3100
3100
3200
3200
3c00
3c00
3800
3800
ENDCHAR
STARTCHAR W
ENCODING 87
SWIDTH 920 0
DWIDTH 15 0
BBX 16 12 2 0
BITMAP
f007
6182
6382
6384
6784
6588
65c8
69d8
69d0
70e0
70e0
60c0
ENDCHAR
STARTCHAR X
ENCODING 88
SWIDTH 630 0
DWIDTH 10 0
BBX 13 12 0 0
BITMAP
3e78
0c20
0e40
0680
0700
0700
0700
0f80
0980
11c0
21c0
fbe0
ENDCHAR
STARTCHAR Y
ENCODING 89
SWIDTH 622 0
DWIDTH 10 0
BBX 11 12 2 0
BITMAP
f9e0
3080
3180
3100
3a00
1c00
1c00
1800
1800
1800
3800
7c00
ENDCHAR
STARTCHAR Z
ENCODING 90
SWIDTH 618 0
DWIDTH 10 0
BBX 12 12 0 0
BITMAP
1ff0
1870
10e0
01c0
0380
0700
0e00
1e00
1c20
3840
70c0
ffc0
ENDCHAR
STARTCHAR bracketleft
ENCODING 91
SWIDTH 350 0
DWIDTH 6 0
BBX 6 14 2 -2
BITMAP
1c
10
30
30
30
20
20
60
60
40
40
40
c0
e0
ENDCHAR
STARTCHAR backslash
ENCODING 92
SWIDTH 460 0
DWIDTH 8 0
BBX 5 12 3 0
BITMAP
c0
c0
40
60
60
20
20
30
30
10
18
18
ENDCHAR
STARTCHAR bracketright
ENCODING 93
SWIDTH 350 0
DWIDTH 6 0
BBX 6 14 0 -2
BITMAP
1c
0c
08
08
08
18
18
10
10
30
30
30
20
e0
ENDCHAR
STARTCHAR asciicircum
ENCODING 94
SWIDTH 600 0
DWIDTH 10 0
BBX 8 8 2 3
BITMAP
18
18
3c
24
66
66
42
c3
ENDCHAR
STARTCHAR underscore
ENCODING 95
SWIDTH 500 0
DWIDTH 8 0
BBX 8 1 0 -2
BITMAP
ff
ENDCHAR
STARTCHAR grave
ENCODING 96
SWIDTH 400 0
DWIDTH 7 0
BBX 5 4 2 8
BITMAP
c0
e0
30
08
ENDCHAR
STARTCHAR a
ENCODING 97
SWIDTH 596 0
DWIDTH 10 0
BBX 9 8 1 0
BITMAP
0f80
3300
6300
6700
c600
ce00
d680
e700
ENDCHAR
STARTCHAR b
ENCODING 98
SWIDTH 586 0
DWIDTH 10 0
BBX 9 12 1 0
BITMAP
0800
3800
1800
3800
3380
3580
3980
7180
7300
6300
6600
9c00
ENDCHAR
STARTCHAR c
ENCODING 99
SWIDTH 456 0
DWIDTH 8 0
BBX 8 8 1 0
BITMAP
1e
33
62
c0
c0
c2
c4
78
ENDCHAR
STARTCHAR d
ENCODING 100
SWIDTH 609 0
DWIDTH 10 0
BBX 10 12 1 0
BITMAP
0040
01c0
00c0
01c0
0f80
3980
7180
6380
c300
c700
cb40
f380
ENDCHAR
STARTCHAR e
ENCODING 101
SWIDTH 476 0
DWIDTH 8 0
BBX 8 8 1 0
BITMAP
1e
33
63
c6
f8
c2
c6
78
ENDCHAR
STARTCHAR f
ENCODING 102
SWIDTH 348 0
DWIDTH 6 0
BBX 11 16 -1 -4
BITMAP
01c0
0360
0700
0600
1f80
0600
0e00
0c00
0c00
0c00
0c00
1800
1800
1800
d000
6000
ENDCHAR
STARTCHAR g
ENCODING 103
SWIDTH 522 0
DWIDTH 9 0
BBX 11 12 0 -4
BITMAP
0f60
1980
3180
3380
1e00
3000
3e00
3f80
c380
c180
e100
3e00
ENDCHAR
STARTCHAR h
ENCODING 104
SWIDTH 629 0
DWIDTH 10 0
BBX 10 12 1 0
BITMAP
0c00
3800
1800
3800
3380
3580
3980
3180
7100
6340
6340
e380
ENDCHAR
STARTCHAR i
ENCODING 105
SWIDTH 339 0
DWIDTH 6 0
BBX 5 12 2 0
BITMAP
18
38
10
00
30
e0
60
60
60
c0
d0
e0
ENDCHAR
STARTCHAR j
ENCODING 106
SWIDTH 333 0
DWIDTH 6 0
BBX 8 16 -1 -4
BITMAP
03
07
02
00
06
1c
0c
0c
0c
0c
1c
18
18
18
d0
e0
ENDCHAR
STARTCHAR k
ENCODING 107
SWIDTH 570 0
DWIDTH 9 0
BBX 10 12 1 0
BITMAP
1800
7800
3000
3000
31c0
3380
7400
6400
6c00
6c00
e580
c700
ENDCHAR
STARTCHAR l
ENCODING 108
SWIDTH 327 0
DWIDTH 5 0
BBX 5 12 2 0
BITMAP
18
70
30
30
60
60
60
60
40
c0
d0
e0
ENDCHAR
STARTCHAR m
ENCODING 109
SWIDTH 914 0
DWIDTH 15 0
BBX 15 8 1 0
BITMAP
139c
75ac
39cc
318c
7398
731a
631a
e71c
ENDCHAR
STARTCHAR n
ENCODING 110
SWIDTH 635 0
DWIDTH 11 0
BBX 10 8 1 0
BITMAP
1380
7580
3980
3980
7300
7340
6340
e380
ENDCHAR
STARTCHAR o
ENCODING 111
SWIDTH 562 0
DWIDTH 9 0
BBX 9 8 1 0
BITMAP
1f00
7180
6180
e180
c380
c300
c700
7c00
ENDCHAR
STARTCHAR p
ENCODING 112
SWIDTH 606 0
DWIDTH 10 0
BBX 10 12 1 -4
BITMAP
19c0
7ac0
1cc0
38c0
3980
3180
3300
7e00
6000
6000
6000
c000
ENDCHAR
STARTCHAR q
ENCODING 113
SWIDTH 584 0
DWIDTH 10 0
BBX 9 12 1 -4
BITMAP
1e80
3380
6300
6300
c700
ce00
d600
e600
0e00
0c00
0c00
0800
ENDCHAR
STARTCHAR r
ENCODING 114
SWIDTH 440 0
DWIDTH 7 0
BBX 8 8 1 0
BITMAP
33
7f
30
30
70
70
60
e0
ENDCHAR
STARTCHAR s
ENCODING 115
SWIDTH 417 0
DWIDTH 7 0
BBX 7 8 1 0
BITMAP
3c
66
60
78
3c
8c
cc
78
ENDCHAR
STARTCHAR t
ENCODING 116
SWIDTH 359 0
DWIDTH 6 0
BBX 6 10 2 0
BITMAP
30
70
fc
60
60
60
40
d0
d0
e0
ENDCHAR
STARTCHAR u
ENCODING 117
SWIDTH 634 0
DWIDTH 11 0
BBX 9 8 2 0
BITMAP
3180
f300
6300
6300
6700
ce00
d680
e700
ENDCHAR
STARTCHAR v
ENCODING 118
SWIDTH 518 0
DWIDTH 9 0
BBX 8 8 2 0
BITMAP
33
e3
63
62
c2
c4
c8
f0
ENDCHAR
STARTCHAR w
ENCODING 119
SWIDTH 795 0
DWIDTH 13 0
BBX 12 8 2 0
BITMAP
2330
e330
6330
6630
c620
ce40
d680
e700
ENDCHAR
STARTCHAR x
ENCODING 120
SWIDTH 516 0
DWIDTH 9 0
BBX 10 8 0 0
BITMAP
39c0
1f80
0c00
0c00
0c00
1e80
f680
e700
ENDCHAR
STARTCHAR y
ENCODING 121
SWIDTH 489 0
DWIDTH 8 0
BBX 10 12 -1 -4
BITMAP
3840
18c0
1cc0
0c80
0d80
0d00
0e00
0e00
0c00
0800
4800
f000
ENDCHAR
STARTCHAR z
ENCODING 122
SWIDTH 466 0
DWIDTH 8 0
BBX 9 8 0 0
BITMAP
1f80
3f00
4600
0c00
1800
3100
7f00
ce00
ENDCHAR
STARTCHAR braceleft
ENCODING 123
SWIDTH 340 0
DWIDTH 6 0
BBX 6 14 2 -2
BITMAP
0c
10
30
30
30
20
c0
60
60
40
c0
c0
c0
60
ENDCHAR
STARTCHAR bar
ENCODING 124
SWIDTH 265 0
DWIDTH 4 0
BBX 2 12 2 0
BITMAP
c0
c0
c0
c0
c0
c0
c0
c0
c0
c0
c0
c0
ENDCHAR
STARTCHAR braceright
ENCODING 125
SWIDTH 340 0
DWIDTH 6 0
BBX 6 14 0 -2
BITMAP
18
0c
0c
08
18
18
0c
10
10
30
30
30
20
c0
ENDCHAR
STARTCHAR asciitilde
ENCODING 126
SWIDTH 600 0
DWIDTH 10 0
BBX 8 3 2 3
BITMAP
21
7e
84
ENDCHAR
STARTCHAR nobreakspace
ENCODING 160
SWIDTH 210 0
DWIDTH 3 0
BBX 0 0 0 0
BITMAP
ENDCHAR
STARTCHAR Aogonek
ENCODING 161
SWIDTH 634 0
DWIDTH 11 0
BBX 12 16 -1 -4
BITMAP
01c0
01c0
03c0
03c0
05c0
04c0
08c0
0fc0
10c0
30e0
20e0
f1f0
0200
0400
0c00
0700
ENDCHAR
STARTCHAR breve
ENCODING 162
SWIDTH 400 0
DWIDTH 7 0
BBX 6 3 3 9
BITMAP
04
88
70
ENDCHAR
STARTCHAR Lstroke
ENCODING 163
SWIDTH 592 0
DWIDTH 10 0
BBX 10 12 1 0
BITMAP
3f00
0c00
1c00
1d00
1e00
1c00
1800
7800
b040
3080
7180
ff80
ENDCHAR
STARTCHAR currency
ENCODING 164
SWIDTH 560 0
DWIDTH 9 0
BBX 8 7 2 2
BITMAP
ff
66
c3
c3
c3
66
ff
ENDCHAR
STARTCHAR Lcaron
ENCODING 165
SWIDTH 720 0
DWIDTH 12 0
BBX 12 13 1 0
BITMAP
0030
3f30
0c30
1c20
1c40
1c00
1800
3800
3800
3840
7040
7080
ff80
ENDCHAR
STARTCHAR Sacute
ENCODING 166
SWIDTH 551 0
DWIDTH 9 0
BBX 10 17 2 0
BITMAP
00c0
01c0
0300
0400
0000
1e00
2380
6100
6100
7000
3c00
1c00
0e00
8600
8600
c400
7800
ENDCHAR
STARTCHAR section
ENCODING 167
SWIDTH 568 0
DWIDTH 9 0
BBX 8 14 2 -2
BITMAP
0e
13
32
78
9c
8e
c7
e1
71
3a
1e
8c
c8
70
ENDCHAR
STARTCHAR diaeresis
ENCODING 168
SWIDTH 400 0
DWIDTH 7 0
BBX 7 2 2 10
BITMAP
ee
ee
ENDCHAR
STARTCHAR Scaron
ENCODING 169
SWIDTH 551 0
DWIDTH 9 0
BBX 9 17 2 0
BITMAP
1080
0900
0e00
0400
0000
1e00
2380
6100
6100
7000
3c00
1c00
0e00
8600
8600
c400
7800
ENDCHAR
STARTCHAR Scedilla
ENCODING 170
SWIDTH 551 0
DWIDTH 9 0
BBX 9 17 2 -5
BITMAP
1e00
2380
6100
6100
7000
3c00
1c00
0e00
8600
8600
c400
7800
0400
0800
0e00
0600
1c00
ENDCHAR
STARTCHAR Tcaron
ENCODING 171
SWIDTH 616 0
DWIDTH 10 0
BBX 11 17 2 0
BITMAP
0840
0480
0700
0200
0000
7fe0
4e40
8e40
0c00
1c00
1c00
1c00
1800
1800
3800
3800
fc00
ENDCHAR
STARTCHAR Zacute
ENCODING 172
SWIDTH 618 0
DWIDTH 10 0
BBX 12 17 0 0
BITMAP
0030
0070
00c0
0100
0000
1ff0
1870
10e0
01c0
0380
0700
0e00
1e00
1c20
3840
70c0
ffc0
ENDCHAR
STARTCHAR hyphen
ENCODING 173
SWIDTH 392 0
DWIDTH 7 0
BBX 5 2 2 3
BITMAP
f8
f8
ENDCHAR
STARTCHAR Zcaron
ENCODING 174
SWIDTH 618 0
DWIDTH 10 0
BBX 12 17 0 0
BITMAP
0420
0240
0380
0100
0000
1ff0
1870
10e0
01c0
0380
0700
0e00
1e00
1c20
3840
70c0
ffc0
ENDCHAR
STARTCHAR Zabovedot
ENCODING 175
SWIDTH 618 0
DWIDTH 10 0
BBX 12 15 0 0
BITMAP
0180
0180
0000
1ff0
1870
10e0
01c0
0380
0700
0e00
1e00
1c20
3840
70c0
ffc0
ENDCHAR
STARTCHAR degree
ENCODING 176
SWIDTH 375 0
DWIDTH 6 0
BBX 6 5 2 6
BITMAP
78
84
84
84
78
ENDCHAR
STARTCHAR aogonek
ENCODING 177
SWIDTH 596 0
DWIDTH 10 0
BBX 9 12 1 -4
BITMAP
0f80
3300
6300
6700
c600
ce00
d680
e700
0400
0800
1800
0e00
ENDCHAR
STARTCHAR ogonek
ENCODING 178
SWIDTH 350 0
DWIDTH 6 0
BBX 4 4 1 -4
BITMAP
20
40
c0
70
ENDCHAR
STARTCHAR lstroke
ENCODING 179
SWIDTH 339 0
DWIDTH 6 0
BBX 7 12 1 0
BITMAP
0c
38
18
18
3a
3c
30
f0
20
60
68
70
ENDCHAR
STARTCHAR acute
ENCODING 180
SWIDTH 400 0
DWIDTH 7 0
BBX 5 4 3 8
BITMAP
18
38
60
80
ENDCHAR
STARTCHAR lcaron
ENCODING 181
SWIDTH 540 0
DWIDTH 9 0
BBX 9 13 2 0
BITMAP
0180
1980
7180
3100
3200
6000
6000
6000
6000
4000
c000
d000
e000
ENDCHAR
STARTCHAR sacute
ENCODING 182
SWIDTH 417 0
DWIDTH 7 0
BBX 8 13 1 0
BITMAP
03
07
0c
10
00
3c
66
60
78
3c
8c
cc
78
ENDCHAR
STARTCHAR caron
ENCODING 183
SWIDTH 400 0
DWIDTH 7 0
BBX 6 4 3 9
BITMAP
84
48
70
20
ENDCHAR
STARTCHAR cedilla
ENCODING 184
SWIDTH 400 0
DWIDTH 7 0
BBX 4 5 2 -4
BITMAP
20
40
70
30
e0
ENDCHAR
STARTCHAR scaron
ENCODING 185
SWIDTH 417 0
DWIDTH 7 0
BBX 7 13 1 0
BITMAP
42
24
38
10
00
3c
66
60
78
3c
8c
cc
78
ENDCHAR
STARTCHAR scedilla
ENCODING 186
SWIDTH 417 0
DWIDTH 7 0
BBX 7 13 1 -5
BITMAP
3c
66
60
78
3c
8c
cc
78
08
10
1c
0c
38
ENDCHAR
STARTCHAR tcaron
ENCODING 187
SWIDTH 480 0
DWIDTH 8 0
BBX 8 14 2 0
BITMAP
03
03
03
02
34
70
fc
60
60
60
40
d0
d0
e0
ENDCHAR
STARTCHAR zacute
ENCODING 188
SWIDTH 466 0
DWIDTH 8 0
BBX 10 13 0 0
BITMAP
00c0
01c0
0300
0400
0000
1f80
3f00
4600
0c00
1800
3100
7f00
ce00
ENDCHAR
STARTCHAR doubleacute
ENCODING 189
SWIDTH 400 0
DWIDTH 7 0
BBX 5 3 3 9
BITMAP
48
50
90
ENDCHAR
STARTCHAR zcaron
ENCODING 190
SWIDTH 466 0
DWIDTH 8 0
BBX 9 13 0 0
BITMAP
1080
0900
0e00
0400
0000
1f80
3f00
4600
0c00
1800
3100
7f00
ce00
ENDCHAR
STARTCHAR zabovedot
ENCODING 191
SWIDTH 466 0
DWIDTH 8 0
BBX 9 11 0 0
BITMAP
0600
0600
0000
1f80
3f00
4600
0c00
1800
3100
7f00
ce00
ENDCHAR
STARTCHAR Racute
ENCODING 192
SWIDTH 681 0
DWIDTH 11 0
BBX 12 17 1 0
BITMAP
0030
0070
00c0
0100
0000
1fc0
0c60
0c60
0c60
1860
18c0
1f00
1980
1980
3980
3980
f8c0
ENDCHAR
STARTCHAR Aacute
ENCODING 193
SWIDTH 634 0
DWIDTH 11 0
BBX 12 15 -1 0
BITMAP
0070
01e0
0000
01c0
01c0
03c0
03c0
05c0
04c0
08c0
0fc0
10c0
30e0
20e0
f1f0
ENDCHAR
STARTCHAR Acircumflex
ENCODING 194
SWIDTH 634 0
DWIDTH 11 0
BBX 12 15 -1 0
BITMAP
00c0
03e0
0410
01c0
01c0
03c0
03c0
05c0
04c0
08c0
0fc0
10c0
30e0
20e0
f1f0
ENDCHAR
STARTCHAR Abreve
ENCODING 195
SWIDTH 634 0
DWIDTH 11 0
BBX 12 16 -1 0
BITMAP
0010
0220
01c0
0000
01c0
01c0
03c0
03c0
05c0
04c0
08c0
0fc0
10c0
30e0
20e0
f1f0
ENDCHAR
STARTCHAR Adiaeresis
ENCODING 196
SWIDTH 634 0
DWIDTH 11 0
BBX 11 14 0 0
BITMAP
0660
0620
0080
0180
0380
0580
0580
09c0
19c0
1fc0
30c0
20c0
40c0
f1e0
ENDCHAR
STARTCHAR Lacute
ENCODING 197
SWIDTH 586 0
DWIDTH 10 0
BBX 10 17 1 0
BITMAP
00c0
01c0
0300
0400
0000
3f00
0c00
1c00
1c00
1c00
1800
3800
3800
3840
7040
7080
ff80
ENDCHAR
STARTCHAR Cacute
ENCODING 198
SWIDTH 672 0
DWIDTH 11 0
BBX 12 17 2 0
BITMAP
0030
0070
00c0
0100
0000
0780
18e0
3040
7040
6000
e000
e000
e000
e080
6080
7100
1e00
ENDCHAR
STARTCHAR Ccedilla
ENCODING 199
SWIDTH 672 0
DWIDTH 11 0
BBX 11 16 2 -4
BITMAP
0f80
18e0
3040
7040
6000
e000
e000
e000
e080
6180
7300
1e00
0800
1c00
0c00
1800
ENDCHAR
STARTCHAR Ccaron
ENCODING 200
SWIDTH 672 0
DWIDTH 11 0
BBX 11 17 2 0
BITMAP
0420
0240
0380
0100
0000
0780
18e0
3040
7040
6000
e000
e000
e000
e080
6080
7100
1e00
ENDCHAR
STARTCHAR Eacute
ENCODING 201
SWIDTH 622 0
DWIDTH 10 0
BBX 11 15 1 0
BITMAP
00c0
0780
0000
3fe0
1c60
1c20
1800
1880
3f80
3900
3100
3040
7080
7180
ff80
ENDCHAR
STARTCHAR Eogonek
ENCODING 202
SWIDTH 622 0
DWIDTH 10 0
BBX 11 16 1 -4
BITMAP
3fe0
1c60
1c20
1800
1880
3f80
3900
3100
3040
7080
7180
ff80
0200
0400
0c00
0700
ENDCHAR
STARTCHAR Ediaeresis
ENCODING 203
SWIDTH 622 0
DWIDTH 10 0
BBX 10 14 1 0
BITMAP
0cc0
0cc0
3fc0
0c40
1840
1800
1880
1f80
1900
3900
3040
3080
3080
ff80
ENDCHAR
STARTCHAR Ecaron
ENCODING 204
SWIDTH 622 0
DWIDTH 10 0
BBX 11 17 1 0
BITMAP
0840
0480
0700
0200
0000
3fe0
1c60
1c20
1800
1880
3f80
3900
3100
3040
7080
7180
ff80
ENDCHAR
STARTCHAR Iacute
ENCODING 205
SWIDTH 386 0
DWIDTH 6 0
BBX 8 15 1 0
BITMAP
07
1e
00
3e
1c
1c
1c
18
18
38
38
30
30
70
f8
ENDCHAR
STARTCHAR Icircumflex
ENCODING 206
SWIDTH 386 0
DWIDTH 6 0
BBX 8 15 1 0
BITMAP
04
3f
00
3e
1c
1c
18
18
18
38
38
30
30
70
f8
ENDCHAR
STARTCHAR Dcaron
ENCODING 207
SWIDTH 774 0
DWIDTH 13 0
BBX 13 17 0 0
BITMAP
0420
0240
0380
0100
0000
1fc0
0c30
0c18
0c18
1818
1818
1818
1838
3830
3870
38e0
ff80
ENDCHAR
STARTCHAR Dstroke
ENCODING 208
SWIDTH 780 0
DWIDTH 13 0
BBX 12 12 1 0
BITMAP
1fc0
0c60
0c30
0c30
1830
7f30
1830
1870
3860
38e0
39c0
ff00
ENDCHAR
STARTCHAR Nacute
ENCODING 209
SWIDTH 741 0
DWIDTH 12 0
BBX 14 17 1 0
BITMAP
0018
0038
0060
0080
0000
3c3c
0e18
1610
1710
1710
1320
13a0
21a0
21e0
21e0
60c0
f0c0
ENDCHAR
STARTCHAR Ncaron
ENCODING 210
SWIDTH 741 0
DWIDTH 12 0
BBX 14 17 1 0
BITMAP
0210
0120
01c0
0080
0000
3c3c
0e18
1610
1710
1710
1320
13a0
21a0
21e0
21e0
60c0
f0c0
ENDCHAR
STARTCHAR Oacute
ENCODING 211
SWIDTH 761 0
DWIDTH 13 0
BBX 11 15 2 0
BITMAP
00c0
07c0
0000
0f80
38c0
7060
6060
e060
c060
c060
c0e0
c0c0
c1c0
6380
3e00
ENDCHAR
STARTCHAR Ocircumflex
ENCODING 212
SWIDTH 761 0
DWIDTH 13 0
BBX 11 15 2 0
BITMAP
0100
0fc0
1000
0780
38c0
7060
6060
e060
c060
c060
c0e0
c0c0
c1c0
6380
3e00
ENDCHAR
STARTCHAR Odoubleacute
ENCODING 213
SWIDTH 761 0
DWIDTH 13 0
BBX 11 16 2 0
BITMAP
0240
0280
0480
0000
0f80
38c0
7060
6060
e060
c060
c060
c0e0
c0c0
c1c0
6380
3e00
ENDCHAR
STARTCHAR Odiaeresis
ENCODING 214
SWIDTH 761 0
DWIDTH 13 0
BBX 11 14 2 0
BITMAP
0cc0
0c40
0f00
38c0
7060
6060
e060
c060
c060
c0e0
c0c0
c1c0
6380
3e00
ENDCHAR
STARTCHAR multiply
ENCODING 215
SWIDTH 600 0
DWIDTH 10 0
BBX 7 8 3 0
BITMAP
82
c6
6c
38
38
6c
c6
82
ENDCHAR
STARTCHAR Rcaron
ENCODING 216
SWIDTH 681 0
DWIDTH 11 0
BBX 11 17 1 0
BITMAP
0420
0240
0380
0100
0000
1fc0
0c60
0c60
0c60
1860
18c0
1f00
1980
1980
3980
3980
f8c0
ENDCHAR
STARTCHAR Uring
ENCODING 217
SWIDTH 776 0
DWIDTH 13 0
BBX 12 17 3 0
BITMAP
0700
0880
0880
0700
0000
f9f0
70c0
60c0
61c0
61c0
6180
c180
c380
c380
c300
c600
3c00
ENDCHAR
STARTCHAR Uacute
ENCODING 218
SWIDTH 776 0
DWIDTH 13 0
BBX 12 15 3 0
BITMAP
00c0
0780
0000
f9f0
70c0
60c0
61c0
61c0
6180
c180
c380
c380
c300
c600
3c00
ENDCHAR
STARTCHAR Udoubleacute
ENCODING 219
SWIDTH 776 0
DWIDTH 13 0
BBX 12 16 3 0
BITMAP
0240
0280
0480
0000
f9f0
70c0
60c0
61c0
61c0
6180
c180
c380
c380
c300
c600
3c00
ENDCHAR
STARTCHAR Udiaeresis
ENCODING 220
SWIDTH 776 0
DWIDTH 13 0
BBX 11 14 3 0
BITMAP
1980
1980
f9e0
70c0
60c0
6180
6180
6180
e180
c180
c300
c300
e700
3c00
ENDCHAR
STARTCHAR Yacute
ENCODING 221
SWIDTH 622 0
DWIDTH 10 0
BBX 11 15 2 0
BITMAP
00c0
0780
0000
f9e0
3080
3180
3100
3a00
1c00
1c00
1800
1800
1800
3800
7c00
ENDCHAR
STARTCHAR Tcedilla
ENCODING 222
SWIDTH 616 0
DWIDTH 10 0
BBX 11 17 2 -5
BITMAP
7fe0
4e40
8e40
0c00
1c00
1c00
1c00
1800
1800
3800
3800
fc00
0200
0400
0700
0300
0e00
ENDCHAR
STARTCHAR ssharp
ENCODING 223
SWIDTH 628 0
DWIDTH 10 0
BBX 14 16 -2 -4
BITMAP
0078
018c
018c
030c
0f38
0720
0660
0670
0638
0e18
0cd8
0cf0
0c00
1800
d800
7000
ENDCHAR
STARTCHAR racute
ENCODING 224
SWIDTH 440 0
DWIDTH 7 0
BBX 9 13 1 0
BITMAP
0180
0380
0600
0800
0000
3300
7f00
3000
3000
7000
7000
6000
e000
ENDCHAR
STARTCHAR aacute
ENCODING 225
SWIDTH 596 0
DWIDTH 10 0
BBX 9 12 1 0
BITMAP
0180
0300
0e00
0000
0f80
3300
6300
6700
c600
ce00
d680
e700
ENDCHAR
STARTCHAR acircumflex
ENCODING 226
SWIDTH 596 0
DWIDTH 10 0
BBX 9 12 1 0
BITMAP
0200
0600
1900
0180
0f80
3300
6300
6700
c600
ce00
d680
e700
ENDCHAR
STARTCHAR abreve
ENCODING 227
SWIDTH 596 0
DWIDTH 10 0
BBX 9 12 1 0
BITMAP
0080
1100
0e00
0000
0f80
3300
6300
6700
c600
ce00
d680
e700
ENDCHAR
STARTCHAR adiaeresis
ENCODING 228
SWIDTH 596 0
DWIDTH 10 0
BBX 9 12 1 0
BITMAP
1980
1980
0000
0000
0f80
3300
6300
6700
c600
ce00
d680
e700
ENDCHAR
STARTCHAR lacute
ENCODING 229
SWIDTH 327 0
DWIDTH 5 0
BBX 8 17 2 0
BITMAP
03
07
0c
10
00
18
70
30
30
60
60
60
60
40
c0
d0
e0
ENDCHAR
STARTCHAR cacute
ENCODING 230
SWIDTH 456 0
DWIDTH 8 0
BBX 9 13 1 0
BITMAP
0180
0380
0600
0800
0000
1e00
3300
6200
c000
c000
c200
c400
7800
ENDCHAR
STARTCHAR ccedilla
ENCODING 231
SWIDTH 456 0
DWIDTH 8 0
BBX 8 12 1 -4
BITMAP
1e
33
62
c0
c0
c2
c4
78
20
38
18
70
ENDCHAR
STARTCHAR ccaron
ENCODING 232
SWIDTH 456 0
DWIDTH 8 0
BBX 8 13 1 0
BITMAP
21
12
1c
08
00
1e
33
62
c0
c0
c2
c4
78
ENDCHAR
STARTCHAR eacute
ENCODING 233
SWIDTH 476 0
DWIDTH 8 0
BBX 9 12 1 0
BITMAP
0100
0380
0e00
0000
1e00
3300
6300
c600
f800
c200
c600
7800
ENDCHAR
STARTCHAR eogonek
ENCODING 234
SWIDTH 476 0
DWIDTH 8 0
BBX 8 12 1 -4
BITMAP
1e
33
63
c6
f8
c2
c6
78
08
10
30
1c
ENDCHAR
STARTCHAR ediaeresis
ENCODING 235
SWIDTH 476 0
DWIDTH 8 0
BBX 8 12 1 0
BITMAP
33
33
00
00
1e
33
63
c6
f8
c2
c6
78
ENDCHAR
STARTCHAR ecaron
ENCODING 236
SWIDTH 476 0
DWIDTH 8 0
BBX 8 13 1 0
BITMAP
21
12
1c
08
00
1e
33
63
c6
f8
c2
c6
78
ENDCHAR
STARTCHAR iacute
ENCODING 237
SWIDTH 339 0
DWIDTH 6 0
BBX 5 12 2 0
BITMAP
08
18
70
00
30
e0
60
60
60
c0
d0
e0
ENDCHAR
STARTCHAR icircumflex
ENCODING 238
SWIDTH 339 0
DWIDTH 6 0
BBX 5 12 2 0
BITMAP
20
70
d8
88
20
e0
60
60
60
c0
d0
e0
ENDCHAR
STARTCHAR dcaron
ENCODING 239
SWIDTH 840 0
DWIDTH 14 0
BBX 14 13 1 0
BITMAP
000c
004c
01cc
00c8
01d0
0f80
3980
7180
6380
c300
c700
cb40
f380
ENDCHAR
STARTCHAR dstroke
ENCODING 240
SWIDTH 780 0
DWIDTH 13 0
BBX 13 12 1 0
BITMAP
0040
01c0
0ff8
01c0
0f80
3980
7180
6380
c300
c700
cb40
f380
ENDCHAR
STARTCHAR nacute
ENCODING 241
SWIDTH 635 0
DWIDTH 11 0
BBX 10 13 1 0
BITMAP
0180
0380
0600
0800
0000
1380
7580
3980
3980
7300
7340
6340
e380
ENDCHAR
STARTCHAR ncaron
ENCODING 242
SWIDTH 635 0
DWIDTH 11 0
BBX 10 13 1 0
BITMAP
2100
1200
1c00
0800
0000
1380
7580
3980
3980
7300
7340
6340
e380
ENDCHAR
STARTCHAR oacute
ENCODING 243
SWIDTH 562 0
DWIDTH 9 0
BBX 9 12 1 0
BITMAP
0080
0180
0e00
0000
1f00
7180
6180
e180
c380
c300
c700
7c00
ENDCHAR
STARTCHAR ocircumflex
ENCODING 244
SWIDTH 562 0
DWIDTH 9 0
BBX 9 12 1 0
BITMAP
0600
0f00
3900
0000
1f00
7180
6180
e180
c380
c300
c700
7c00
ENDCHAR
STARTCHAR odoubleacute
ENCODING 245
SWIDTH 562 0
DWIDTH 9 0
BBX 9 12 1 0
BITMAP
0900
0a00
1200
0000
1f00
7180
6180
e180
c380
c300
c700
7c00
ENDCHAR
STARTCHAR odiaeresis
ENCODING 246
SWIDTH 562 0
DWIDTH 9 0
BBX 9 12 1 0
BITMAP
1980
1980
0000
0000
1f00
7180
6180
e180
c380
c300
c700
7c00
ENDCHAR
STARTCHAR division
ENCODING 247
SWIDTH 600 0
DWIDTH 10 0
BBX 8 7 2 0
BITMAP
18
18
00
ff
00
18
18
ENDCHAR
STARTCHAR rcaron
ENCODING 248
SWIDTH 440 0
DWIDTH 7 0
BBX 8 13 1 0
BITMAP
21
12
1c
08
00
33
7f
30
30
70
70
60
e0
ENDCHAR
STARTCHAR uring
ENCODING 249
SWIDTH 634 0
DWIDTH 11 0
BBX 9 13 2 0
BITMAP
1c00
2200
2200
1c00
0000
3180
f300
6300
6300
6700
ce00
d680
e700
ENDCHAR
STARTCHAR uacute
ENCODING 250
SWIDTH 634 0
DWIDTH 11 0
BBX 9 12 2 0
BITMAP
0180
0380
0600
0400
3180
f300
6300
6300
6700
ce00
d680
e700
ENDCHAR
STARTCHAR udoubleacute
ENCODING 251
SWIDTH 634 0
DWIDTH 11 0
BBX 9 12 2 0
BITMAP
0900
0a00
1200
0000
3180
f300
6300
6300
6700
ce00
d680
e700
ENDCHAR
STARTCHAR udiaeresis
ENCODING 252
SWIDTH 634 0
DWIDTH 11 0
BBX 9 12 2 0
BITMAP
3300
3300
0000
0000
3180
f300
6300
6300
6700
ce00
d680
e700
ENDCHAR
STARTCHAR yacute
ENCODING 253
SWIDTH 489 0
DWIDTH 8 0
BBX 10 16 -1 -4
BITMAP
0040
01c0
0300
0200
3840
18c0
1cc0
0c80
0d80
0d00
0e00
0e00
0c00
0800
4800
f000
ENDCHAR
STARTCHAR tcedilla
ENCODING 254
SWIDTH 359 0
DWIDTH 6 0
BBX 6 15 2 -5
BITMAP
30
70
fc
60
60
60
40
d0
d0
e0
10
20
38
18
70
ENDCHAR
STARTCHAR abovedot
ENCODING 255
SWIDTH 402 0
DWIDTH 7 0
BBX 2 2 5 10
BITMAP
c0
c0
ENDCHAR
ENDFONT
